<?xml version="1.0" encoding="UTF-8"?>
<!DOCTYPE svg PUBLIC "-//W3C//DTD SVG 1.1//EN" "http://www.w3.org/Graphics/SVG/1.1/DTD/svg11.dtd">
<!-- Creator: CorelDRAW X7 -->
<svg xmlns="http://www.w3.org/2000/svg" xml:space="preserve" width="4200px" height="1000px" version="1.1" style="shape-rendering:geometricPrecision; text-rendering:geometricPrecision; image-rendering:optimizeQuality; fill-rule:evenodd; clip-rule:evenodd"
viewBox="0 0 2084 496"
 xmlns:xlink="http://www.w3.org/1999/xlink">
 <defs>
  <style type="text/css">
   <![CDATA[
    .str0 {stroke:#ED3237;stroke-width:1.42875}
    .fil0 {fill:none}
    .fil5 {fill:#848688}
    .fil4 {fill:#727376}
    .fil3 {fill:#ED3237}
    .fil2 {fill:#E73338}
    .fil7 {fill:#CA3438}
    .fil1 {fill:#AD3437}
    .fil6 {fill:#923132}
   ]]>
  </style>
 </defs>
 <g id="Layer_x0020_1">
  <metadata id="CorelCorpID_0Corel-Layer"/>
  <rect class="fil0" width="2084" height="496"/>
  <rect class="fil1" transform="matrix(0.11076 0.0177329 -0 0.323079 495.226 99.2202)" width="157" height="298"/>
  <rect class="fil2" transform="matrix(-0.31107 0.0756065 -0 0.288844 571.417 99.2202)" width="157" height="298"/>
  <rect class="fil3" transform="matrix(-0.378946 0.108646 -0 0.271458 248.042 99.219)" width="157" height="298"/>
  <rect class="fil4" x="109" y="158" width="129" height="239" rx="64" ry="63"/>
  <rect class="fil5" x="109" y="158" width="129" height="209" rx="64" ry="55"/>
  <rect class="fil6" x="169" y="99" width="9.92248" height="99.2192"/>
  <rect class="fil4" x="448" y="158" width="129" height="239" rx="64" ry="63"/>
  <rect class="fil5" x="448" y="158" width="129" height="209" rx="64" ry="55"/>
  <path class="fil3 str0" d="M454 99l49 12 0 68c-11,1 -20,5 -29,11l-20 -5 0 -86z"/>
  <rect class="fil4" x="804" y="158" width="129" height="239" rx="64" ry="63"/>
  <rect class="fil5" x="804" y="158" width="129" height="209" rx="64" ry="55"/>
  <path class="fil7" d="M828 99l35 7 0 82c-8,1 -16,3 -23,6l-12 -2 0 -93z"/>
  <path class="fil1" d="M530 99l-17 3 0 83c5,3 10,7 15,11l2 0 0 -97z"/>
  <path class="fil3" d="M99 99l60 17 0 54c-13,3 -24,9 -32,18l-28 -8 0 -81z"/>
  <path class="fil7" d="M908 99l-35 7 0 82c8,1 16,3 23,6l12 -2 0 -93z"/>
  <rect class="fil3" transform="matrix(-0.378946 0.108646 -0 0.271458 1984.35 99.219)" width="157" height="298"/>
  <rect class="fil3" transform="matrix(0.378946 0.108646 -0 0.271458 1835.52 99.219)" width="157" height="298"/>
  <rect class="fil4" x="1845" y="158" width="129" height="239" rx="64" ry="63"/>
  <rect class="fil5" x="1845" y="158" width="129" height="209" rx="64" ry="55"/>
  <rect class="fil3 str0" transform="matrix(0.31107 0.0756065 -0 0.288844 1156.62 99.2202)" width="157" height="298"/>
  <rect class="fil1" transform="matrix(-0.11076 0.0177329 -0 0.323079 1232.81 99.2202)" width="157" height="298"/>
  <rect class="fil4" x="1151" y="158" width="129" height="239" rx="64" ry="63"/>
  <rect class="fil5" x="1151" y="158" width="129" height="209" rx="64" ry="55"/>
  <path class="fil2" d="M1274 99l-49 12 0 68c11,1 20,5 29,11l20 -5 0 -86z"/>
  <path class="fil1" d="M1198 99l17 3 0 83c-5,3 -10,7 -15,11l-2 0 0 -97z"/>
  <rect class="fil3" transform="matrix(0.378946 0.108646 -0 0.271458 1488.26 99.219)" width="157" height="298"/>
  <rect class="fil4" x="1498" y="158" width="129" height="239" rx="64" ry="63"/>
  <rect class="fil5" x="1498" y="158" width="129" height="209" rx="64" ry="55"/>
  <rect class="fil6" x="1558" y="99" width="9.92248" height="99.2192"/>
  <path class="fil3" d="M1637 99l-59 17 0 54c12,3 23,9 32,18l27 -8 0 -81z"/>
  <rect class="fil6" x="1905" y="99" width="9.92248" height="99.2192"/>
 </g>
</svg>
